<?xml version="1.0" encoding="utf-8"?>
<!-- Generator: Adobe Illustrator 17.0.0, SVG Export Plug-In . SVG Version: 6.00 Build 0)  -->
<!DOCTYPE svg PUBLIC "-//W3C//DTD SVG 1.1//EN" "http://www.w3.org/Graphics/SVG/1.1/DTD/svg11.dtd">
<svg version="1.1" id="Layer_1" xmlns="http://www.w3.org/2000/svg" xmlns:xlink="http://www.w3.org/1999/xlink" x="0px" y="0px"
	 width="142px" height="89px" viewBox="0 0 142 89" enable-background="new 0 0 142 89" xml:space="preserve">
<g>
	<g>
		<path fill="#BAD662" d="M35.084,85.23c-0.039,0.266-0.109,0.518-0.211,0.756s-0.242,0.447-0.422,0.627s-0.404,0.322-0.674,0.428
			s-0.596,0.158-0.979,0.158H28.17v-7.184h5.789v-1.172H28.17v-6.387h4.031c0.359,0,0.666,0.053,0.92,0.158s0.465,0.248,0.633,0.428
			s0.297,0.389,0.387,0.627s0.15,0.49,0.182,0.756l0.117,1.031h1.242l-0.117-4.195H23.471v1.008h0.305
			c0.273,0,0.529,0.02,0.768,0.059s0.447,0.119,0.627,0.24s0.32,0.295,0.422,0.521s0.152,0.527,0.152,0.902v4.829
			c-1.377-0.264-4.249-1.185-5.351-1.982c0.373-0.742,0.887-2.517,0.025-5.984c-1.545-6.225-10.591-8.177-15.354-8.671
			c5.038,4.623,1.495,11.716,9.365,14.762c1.779,0.688,3.023,0.902,3.887,0.904c0.551,0.001,0.943-0.086,1.22-0.191
			c1.169,0.868,2.65,1.438,3.935,1.954c0.066,0.025,1.621,0.48,2.273,0.657v5.512c0,0.352-0.053,0.635-0.158,0.85
			s-0.248,0.377-0.428,0.486s-0.389,0.182-0.627,0.217s-0.49,0.053-0.756,0.053h-0.305v1.008h12.867l0.164-4.195h-1.254
			L35.084,85.23z"/>
		<path fill="#BAD662" d="M47.975,85.394c-0.273,0.492-0.688,0.895-1.242,1.207s-1.203,0.469-1.945,0.469
			c-1.289,0-2.217-0.418-2.783-1.254s-0.85-2.105-0.85-3.809c0-1.07,0.07-1.961,0.211-2.672s0.344-1.277,0.609-1.699
			s0.584-0.719,0.955-0.891s0.787-0.258,1.248-0.258c0.406,0,0.74,0.072,1.002,0.217s0.469,0.344,0.621,0.598
			s0.26,0.549,0.322,0.885s0.094,0.691,0.094,1.066c0.711,0,1.246-0.113,1.605-0.34s0.539-0.617,0.539-1.172
			c0-0.414-0.125-0.775-0.375-1.084s-0.574-0.564-0.973-0.768s-0.846-0.354-1.342-0.451s-0.994-0.146-1.494-0.146
			c-0.758,0-1.463,0.109-2.115,0.328s-1.219,0.59-1.699,1.113s-0.855,1.217-1.125,2.08s-0.404,1.936-0.404,3.217
			c0,1.18,0.135,2.186,0.404,3.018s0.646,1.514,1.131,2.045s1.062,0.92,1.734,1.166s1.406,0.369,2.203,0.369
			c0.68,0,1.273-0.068,1.781-0.205s0.932-0.314,1.271-0.533s0.596-0.465,0.768-0.738s0.258-0.547,0.258-0.82
			c0-0.219-0.039-0.406-0.117-0.562S48.092,85.487,47.975,85.394z"/>
		<path fill="#BAD662" d="M60.367,76.927c-0.48-0.551-1.064-0.961-1.752-1.23s-1.465-0.404-2.332-0.404
			c-1.859,0-3.264,0.547-4.213,1.641s-1.424,2.762-1.424,5.004c0,1.125,0.127,2.107,0.381,2.947s0.621,1.537,1.102,2.092
			s1.064,0.969,1.752,1.242s1.465,0.41,2.332,0.41c1.844,0,3.244-0.551,4.201-1.652s1.436-2.781,1.436-5.039
			c0-1.125-0.127-2.104-0.381-2.936S60.848,77.478,60.367,76.927z M59.348,84.292c-0.113,0.68-0.299,1.248-0.557,1.705
			s-0.594,0.803-1.008,1.037s-0.922,0.352-1.523,0.352s-1.111-0.117-1.529-0.352s-0.758-0.58-1.02-1.037s-0.451-1.025-0.568-1.705
			s-0.176-1.465-0.176-2.355s0.059-1.672,0.176-2.344s0.305-1.232,0.562-1.682s0.594-0.787,1.008-1.014s0.922-0.34,1.523-0.34
			s1.111,0.113,1.529,0.34s0.756,0.564,1.014,1.014s0.445,1.01,0.562,1.682s0.176,1.453,0.176,2.344S59.461,83.612,59.348,84.292z"
			/>
	</g>
	<path fill="#F4F4F4" d="M74.307,72.269h0.316c0.273,0,0.529,0.02,0.768,0.059s0.445,0.119,0.621,0.24s0.316,0.295,0.422,0.521
		s0.158,0.527,0.158,0.902v4.852h-7.805v-4.852c0-0.375,0.053-0.676,0.158-0.902s0.246-0.4,0.422-0.521s0.385-0.201,0.627-0.24
		s0.496-0.059,0.762-0.059h0.316v-1.008h-6.984v1.008h0.305c0.266,0,0.518,0.018,0.756,0.053s0.447,0.111,0.627,0.229
		s0.322,0.283,0.428,0.498s0.158,0.498,0.158,0.85v11.766c0,0.375-0.051,0.676-0.152,0.902s-0.242,0.4-0.422,0.521
		s-0.389,0.201-0.627,0.24s-0.494,0.059-0.768,0.059h-0.305v1.008h6.984v-1.008h-0.316c-0.266,0-0.52-0.02-0.762-0.059
		s-0.451-0.119-0.627-0.24s-0.316-0.295-0.422-0.521s-0.158-0.527-0.158-0.902v-5.625h7.805v5.625c0,0.375-0.053,0.676-0.158,0.902
		s-0.246,0.4-0.422,0.521s-0.383,0.201-0.621,0.24s-0.494,0.059-0.768,0.059h-0.316v1.008h6.984v-1.008h-0.305
		c-0.266,0-0.518-0.018-0.756-0.053s-0.447-0.107-0.627-0.217s-0.322-0.271-0.428-0.486s-0.158-0.498-0.158-0.85V73.991
		c0-0.375,0.051-0.676,0.152-0.902s0.242-0.4,0.422-0.521s0.389-0.201,0.627-0.24s0.494-0.059,0.768-0.059h0.305v-1.008h-6.984
		V72.269z"/>
	<path fill="#F4F4F4" d="M93.25,76.927c-0.48-0.551-1.064-0.961-1.752-1.23s-1.465-0.404-2.332-0.404
		c-1.859,0-3.264,0.547-4.213,1.641s-1.424,2.762-1.424,5.004c0,1.125,0.127,2.107,0.381,2.947s0.621,1.537,1.102,2.092
		s1.064,0.969,1.752,1.242s1.465,0.41,2.332,0.41c1.844,0,3.244-0.551,4.201-1.652s1.436-2.781,1.436-5.039
		c0-1.125-0.127-2.104-0.381-2.936S93.73,77.478,93.25,76.927z M92.23,84.292c-0.113,0.68-0.299,1.248-0.557,1.705
		s-0.594,0.803-1.008,1.037s-0.922,0.352-1.523,0.352s-1.111-0.117-1.529-0.352s-0.758-0.58-1.02-1.037s-0.451-1.025-0.568-1.705
		s-0.176-1.465-0.176-2.355s0.059-1.672,0.176-2.344s0.305-1.232,0.562-1.682s0.594-0.787,1.008-1.014s0.922-0.34,1.523-0.34
		s1.111,0.113,1.529,0.34s0.756,0.564,1.014,1.014s0.445,1.01,0.562,1.682s0.176,1.453,0.176,2.344S92.344,83.612,92.23,84.292z"/>
	<path fill="#F4F4F4" d="M117.256,87.327c-0.227-0.039-0.422-0.119-0.586-0.24s-0.293-0.295-0.387-0.521s-0.141-0.527-0.141-0.902
		v-5.672c0-0.82-0.09-1.527-0.27-2.121s-0.438-1.08-0.773-1.459s-0.746-0.66-1.23-0.844s-1.031-0.275-1.641-0.275
		c-0.375,0-0.736,0.029-1.084,0.088s-0.68,0.168-0.996,0.328s-0.615,0.383-0.896,0.668s-0.543,0.65-0.785,1.096h-0.199
		c-0.148-0.398-0.342-0.736-0.58-1.014s-0.508-0.502-0.809-0.674s-0.627-0.297-0.979-0.375s-0.723-0.117-1.113-0.117
		c-0.375,0-0.729,0.029-1.061,0.088s-0.648,0.168-0.949,0.328s-0.584,0.383-0.85,0.668s-0.52,0.65-0.762,1.096h-0.117l-0.316-1.945
		h-3.762v1.008h0.07c0.266,0,0.512,0.02,0.738,0.059s0.422,0.117,0.586,0.234s0.293,0.283,0.387,0.498s0.141,0.498,0.141,0.85v7.488
		c0,0.375-0.045,0.676-0.135,0.902s-0.217,0.4-0.381,0.521s-0.359,0.201-0.586,0.24s-0.477,0.059-0.75,0.059h-0.316v1.008h6.457
		v-1.008h-0.07c-0.266,0-0.518-0.018-0.756-0.053s-0.447-0.107-0.627-0.217s-0.322-0.271-0.428-0.486s-0.158-0.498-0.158-0.85
		v-5.062c0-0.516,0.047-1.008,0.141-1.477s0.25-0.883,0.469-1.242s0.506-0.645,0.861-0.855s0.795-0.316,1.318-0.316
		c0.461,0,0.852,0.072,1.172,0.217s0.58,0.357,0.779,0.639s0.344,0.625,0.434,1.031s0.135,0.871,0.135,1.395v8.285h4.172v-1.008
		h-0.07c-0.266,0-0.512-0.02-0.738-0.059s-0.422-0.119-0.586-0.24s-0.293-0.295-0.387-0.521s-0.141-0.527-0.141-0.902v-5.262
		c0-0.484,0.045-0.941,0.135-1.371s0.24-0.809,0.451-1.137s0.486-0.588,0.826-0.779s0.76-0.287,1.26-0.287
		c0.461,0,0.852,0.072,1.172,0.217s0.58,0.357,0.779,0.639s0.344,0.625,0.434,1.031s0.135,0.871,0.135,1.395v8.285h4.172v-1.008
		h-0.07C117.728,87.386,117.482,87.366,117.256,87.327z"/>
	<path fill="#F4F4F4" d="M129.033,76.739c-0.43-0.48-0.953-0.842-1.57-1.084s-1.312-0.363-2.086-0.363
		c-1.703,0-3.016,0.566-3.938,1.699s-1.383,2.82-1.383,5.062c0,1.039,0.127,1.967,0.381,2.783s0.619,1.506,1.096,2.068
		s1.061,0.99,1.752,1.283s1.471,0.439,2.338,0.439c0.711,0,1.33-0.078,1.857-0.234s0.967-0.352,1.318-0.586s0.613-0.49,0.785-0.768
		s0.258-0.537,0.258-0.779c0-0.203-0.049-0.379-0.146-0.527s-0.201-0.246-0.311-0.293c-0.141,0.219-0.322,0.428-0.545,0.627
		s-0.479,0.377-0.768,0.533s-0.611,0.281-0.967,0.375s-0.74,0.141-1.154,0.141c-0.57,0-1.074-0.096-1.512-0.287
		s-0.807-0.49-1.107-0.896s-0.531-0.924-0.691-1.553s-0.248-1.381-0.264-2.256h7.992v-1.102c0-0.945-0.115-1.775-0.346-2.49
		S129.463,77.22,129.033,76.739z M122.424,80.835c0.086-1.391,0.369-2.447,0.85-3.17s1.166-1.084,2.057-1.084
		c0.484,0,0.893,0.102,1.225,0.305s0.6,0.492,0.803,0.867s0.352,0.824,0.445,1.348s0.141,1.102,0.141,1.734H122.424z"/>
	<path fill="#F4F4F4" d="M141.139,83.542c-0.141-0.383-0.357-0.727-0.65-1.031s-0.666-0.586-1.119-0.844s-0.996-0.52-1.629-0.785
		c-0.531-0.219-0.986-0.416-1.365-0.592s-0.688-0.357-0.926-0.545s-0.412-0.393-0.521-0.615s-0.164-0.486-0.164-0.791
		c0-0.281,0.043-0.539,0.129-0.773s0.221-0.438,0.404-0.609s0.42-0.305,0.709-0.398s0.637-0.141,1.043-0.141
		c0.711,0,1.232,0.223,1.564,0.668s0.498,1.07,0.498,1.875c0.555,0,0.982-0.131,1.283-0.393s0.451-0.611,0.451-1.049
		c0-0.297-0.074-0.58-0.223-0.85s-0.371-0.504-0.668-0.703s-0.664-0.357-1.102-0.475s-0.941-0.176-1.512-0.176
		c-0.68,0-1.297,0.074-1.852,0.223s-1.031,0.365-1.43,0.65s-0.705,0.639-0.92,1.061s-0.322,0.906-0.322,1.453
		c0,0.523,0.074,0.975,0.223,1.354s0.371,0.717,0.668,1.014s0.674,0.572,1.131,0.826s0.994,0.518,1.611,0.791
		c0.578,0.25,1.059,0.473,1.441,0.668s0.686,0.387,0.908,0.574s0.379,0.389,0.469,0.604s0.135,0.471,0.135,0.768
		c0,0.32-0.059,0.615-0.176,0.885s-0.287,0.5-0.51,0.691s-0.498,0.34-0.826,0.445s-0.707,0.158-1.137,0.158
		c-0.484,0-0.893-0.08-1.225-0.24s-0.6-0.379-0.803-0.656s-0.348-0.6-0.434-0.967s-0.129-0.762-0.129-1.184
		c-0.141,0-0.299,0.025-0.475,0.076s-0.34,0.139-0.492,0.264s-0.281,0.295-0.387,0.51s-0.158,0.482-0.158,0.803
		c0,0.422,0.094,0.791,0.281,1.107s0.453,0.582,0.797,0.797s0.76,0.375,1.248,0.48s1.033,0.158,1.635,0.158
		c0.711,0,1.357-0.078,1.939-0.234s1.08-0.393,1.494-0.709s0.734-0.709,0.961-1.178s0.34-1.016,0.34-1.641
		C141.35,84.366,141.279,83.925,141.139,83.542z"/>
	<g>
		<path fill="#F4F4F4" d="M10.856,14.919V9.49h0.528V7.644h-0.99V6.315H9.291v1.329H7.635V6.315H6.533v1.329H5.541V9.49H6.07v7.851
			c-2.828,1.51-4.86,2.742-6.07,3.471v5.034c0.972-0.596,2.687-1.641,5.099-2.954V57.92h51.267V42.316
			c0-3.694,2.994-6.688,6.688-6.688c3.693,0,6.688,2.994,6.688,6.688V57.92h6.686V4.522c1.526-0.042,3.068-0.064,4.63-0.064V0
			C47.782,0,24.058,8.588,10.856,14.919z M15.666,51.232h-3.88v-3.569h3.88V51.232z M15.666,47.001h-3.88v-3.239h3.88V47.001z
			 M15.666,43.1h-3.88v-3.239h3.88V43.1z M15.666,39.2h-3.88v-3.24h3.88V39.2z M15.666,35.299h-3.88v-3.24h3.88V35.299z
			 M15.666,31.398h-3.88v-3.24h3.88V31.398z M15.666,27.498h-3.88v-3.24h3.88V27.498z M15.666,23.596h-3.88v-3.239h3.88V23.596z
			 M15.666,19.697h-3.88v-0.196c1.211-0.571,2.507-1.16,3.88-1.758V19.697z M20.702,51.232h-3.881v-3.569h3.881V51.232z
			 M20.702,47.001h-3.881v-3.239h3.881V47.001z M20.702,43.1h-3.881v-3.239h3.881V43.1z M20.702,39.2h-3.881v-3.24h3.881V39.2z
			 M20.702,35.299h-3.881v-3.24h3.881V35.299z M20.702,31.398h-3.881v-3.24h3.881V31.398z M20.702,27.498h-3.881v-3.24h3.881V27.498
			z M20.702,23.596h-3.881v-3.239h3.881V23.596z M20.702,19.697h-3.881v-2.451c0.615-0.262,1.247-0.526,1.891-0.79h1.989V19.697z
			 M20.702,15.796h-0.35c0.118-0.046,0.232-0.094,0.35-0.14V15.796z M36.513,51.232h-3.88v-3.569h3.88V51.232z M36.513,47.001h-3.88
			v-3.239h3.88V47.001z M36.513,43.1h-3.88v-3.239h3.88V43.1z M36.513,39.2h-3.88V35.63h3.88V39.2z M36.513,23.927h-3.881v-3.572
			h3.881V23.927z M36.513,19.697h-3.881v-3.242h3.881V19.697z M36.513,15.796h-3.881v-3.242h3.881V15.796z M36.513,11.895h-3.881
			v-0.372c1.262-0.382,2.556-0.755,3.881-1.119V11.895z M41.548,51.232h-3.88v-3.569h3.88V51.232z M41.548,47.001h-3.88v-3.239h3.88
			V47.001z M41.548,43.1h-3.88v-3.239h3.88V43.1z M41.548,39.2h-3.88V35.63h3.88V39.2z M41.548,23.927h-3.88v-3.572h3.88V23.927z
			 M41.548,19.697h-3.88v-3.242h3.88V19.697z M41.548,15.796h-3.88v-3.242h3.88V15.796z M41.548,11.895h-3.88V10.09
			c1.265-0.338,2.557-0.668,3.88-0.986V11.895z M52.838,23.927h-3.881v-3.572h3.881V23.927z M52.838,19.697h-3.881v-3.242h3.881
			V19.697z M52.838,15.796h-3.881v-3.242h3.881V15.796z M52.838,11.895h-3.881V8.654h3.881V11.895z M52.838,7.995h-3.881V7.5
			c1.272-0.245,2.566-0.478,3.881-0.699V7.995z M57.873,23.927h-3.881v-3.572h3.881V23.927z M57.873,19.697h-3.881v-3.242h3.881
			V19.697z M57.873,15.796h-3.881v-3.242h3.881V15.796z M57.873,11.895h-3.881V8.654h3.881V11.895z M57.873,7.995h-3.881V6.611
			c1.275-0.205,2.568-0.399,3.881-0.579V7.995z M69.162,23.927h-3.88v-3.572h3.88V23.927z M69.162,19.697h-3.88v-3.242h3.88V19.697z
			 M69.162,15.796h-3.88v-3.242h3.88V15.796z M69.162,11.895h-3.88V8.654h3.88V11.895z M69.162,7.995h-3.88V5.184
			c1.276-0.118,2.571-0.22,3.88-0.31V7.995z M74.198,23.927h-3.88v-3.572h3.88V23.927z M74.198,19.697h-3.88v-3.242h3.88V19.697z
			 M74.198,15.796h-3.88v-3.242h3.88V15.796z M74.198,11.895h-3.88V8.654h3.88V11.895z M74.198,7.995h-3.88V4.797
			c1.279-0.08,2.57-0.15,3.88-0.201V7.995z"/>
	</g>
	<path fill="#BAD662" d="M40.91,70.304c0.684,0.97,2.156,1.877,3.389,1.77c0.248-0.018,0.491-0.084,0.714-0.19
		c3.485-1.745,6.94-4.341,10.02-7.044c0.8,0.231,1.92,0.385,3.465,0.256c2.421-0.203,5.864-1.089,10.694-3.427
		c21.37-10.352,9.805-29.43,22.872-43.553c-13.245,2.48-38.166,10.033-41.068,27.846c-1.621,9.924,0.228,14.782,1.444,16.778
		c-3.429,2.936-6.897,5.154-9.316,5.36l-0.329,0.012c-0.188,0-0.362,0.008-0.522,0.025C40.338,68.298,40.226,69.334,40.91,70.304z"
		/>
</g>
</svg>
