<?xml version="1.0" encoding="utf-8"?>
<!-- Generator: Adobe Illustrator 17.0.0, SVG Export Plug-In . SVG Version: 6.00 Build 0)  -->
<!DOCTYPE svg PUBLIC "-//W3C//DTD SVG 1.1//EN" "http://www.w3.org/Graphics/SVG/1.1/DTD/svg11.dtd">
<svg version="1.1" id="Layer_1" xmlns="http://www.w3.org/2000/svg" xmlns:xlink="http://www.w3.org/1999/xlink" x="0px" y="0px"
	 width="184.129px" height="165.349px" viewBox="0 0 184.129 165.349" enable-background="new 0 0 184.129 165.349"
	 xml:space="preserve">
<linearGradient id="Possibly_x2C__Yes_1_" gradientUnits="userSpaceOnUse" x1="81.0567" y1="213.3945" x2="81.0567" y2="117.3042">
	<stop  offset="0" style="stop-color:#FFFFFF"/>
	<stop  offset="0.4197" style="stop-color:#FDFDFD"/>
	<stop  offset="0.5709" style="stop-color:#F6F6F7"/>
	<stop  offset="0.6787" style="stop-color:#EBEBEB"/>
	<stop  offset="0.7659" style="stop-color:#DADADB"/>
	<stop  offset="0.8405" style="stop-color:#C4C4C5"/>
	<stop  offset="0.9065" style="stop-color:#A8A9AB"/>
	<stop  offset="0.9648" style="stop-color:#898A8C"/>
	<stop  offset="1" style="stop-color:#727476"/>
</linearGradient>
<path id="Possibly_x2C__Yes" fill="url(#Possibly_x2C__Yes_1_)" d="M21.711,188.644v9.007h1.056v3.063h-1.981v2.205h-2.205v-2.205
	H15.27v2.205h-2.205v-2.205h-1.983v-3.063h1.058v-13.025c-5.656-2.504-9.72-4.549-12.141-5.759v-8.351
	c1.943,0.99,5.374,2.722,10.198,4.901v-58.112h102.534v25.888c0,6.129,5.988,11.096,13.375,11.096
	c7.385,0,13.375-4.967,13.375-11.096v-25.888h13.371v88.588c3.052,0.07,6.135,0.106,9.26,0.106v7.396
	C95.564,213.395,48.117,199.148,21.711,188.644z M31.332,128.4h-7.759v5.924h7.759V128.4z M31.332,135.42h-7.759v5.374h7.759V135.42
	z M31.332,141.89h-7.759v5.376h7.759V141.89z M31.332,148.362h-7.759v5.376h7.759V148.362z M31.332,154.834h-7.759v5.374h7.759
	V154.834z M31.332,161.304h-7.759v5.376h7.759V161.304z M31.332,167.776h-7.759v5.376h7.759V167.776z M31.332,174.248h-7.759v5.376
	h7.759V174.248z M31.332,180.717h-7.759v0.326c2.423,0.948,5.013,1.923,7.759,2.918V180.717z M41.405,128.4h-7.762v5.924h7.762
	V128.4z M41.405,135.42h-7.762v5.374h7.762V135.42z M41.405,141.89h-7.762v5.376h7.762V141.89z M41.405,148.362h-7.762v5.376h7.762
	V148.362z M41.405,154.834h-7.762v5.374h7.762V154.834z M41.405,161.304h-7.762v5.376h7.762V161.304z M41.405,167.776h-7.762v5.376
	h7.762V167.776z M41.405,174.248h-7.762v5.376h7.762V174.248z M41.405,180.717h-7.762v4.067c1.23,0.436,2.493,0.874,3.783,1.312
	h3.979V180.717z M41.405,187.189h-0.7c0.235,0.077,0.464,0.154,0.7,0.231V187.189z M73.026,128.4h-7.759v5.924h7.759V128.4z
	 M73.026,135.42h-7.759v5.374h7.759V135.42z M73.026,141.89h-7.759v5.376h7.759V141.89z M73.026,148.362h-7.759v5.922h7.759V148.362
	z M73.026,173.7h-7.762v5.924h7.762V173.7z M73.026,180.717h-7.762v5.378h7.762V180.717z M73.026,187.189h-7.762v5.378h7.762
	V187.189z M73.026,193.661h-7.762v0.616c2.524,0.632,5.112,1.252,7.762,1.857V193.661z M83.096,128.4h-7.759v5.924h7.759V128.4z
	 M83.096,135.42h-7.759v5.374h7.759V135.42z M83.096,141.89h-7.759v5.376h7.759V141.89z M83.096,148.362h-7.759v5.922h7.759V148.362
	z M83.096,173.7h-7.759v5.924h7.759V173.7z M83.096,180.717h-7.759v5.378h7.759V180.717z M83.096,187.189h-7.759v5.378h7.759
	V187.189z M83.096,193.661h-7.759v2.993c2.531,0.561,5.114,1.109,7.759,1.637V193.661z M105.676,173.7h-7.762v5.924h7.762V173.7z
	 M105.676,180.717h-7.762v5.378h7.762V180.717z M105.676,187.189h-7.762v5.378h7.762V187.189z M105.676,193.661h-7.762v5.376h7.762
	V193.661z M105.676,200.131h-7.762v0.821c2.544,0.407,5.132,0.792,7.762,1.16V200.131z M115.746,173.7h-7.762v5.924h7.762V173.7z
	 M115.746,180.717h-7.762v5.378h7.762V180.717z M115.746,187.189h-7.762v5.378h7.762V187.189z M115.746,193.661h-7.762v5.376h7.762
	V193.661z M115.746,200.131h-7.762v2.295c2.551,0.341,5.136,0.662,7.762,0.962V200.131z M138.325,173.7h-7.759v5.924h7.759V173.7z
	 M138.325,180.717h-7.759v5.378h7.759V180.717z M138.325,187.189h-7.759v5.378h7.759V187.189z M138.325,193.661h-7.759v5.376h7.759
	V193.661z M138.325,200.131h-7.759v4.665c2.553,0.194,5.143,0.363,7.759,0.513V200.131z M148.397,173.7h-7.759v5.924h7.759V173.7z
	 M148.397,180.717h-7.759v5.378h7.759V180.717z M148.397,187.189h-7.759v5.378h7.759V187.189z M148.397,193.661h-7.759v5.376h7.759
	V193.661z M148.397,200.131h-7.759v5.306c2.557,0.132,5.141,0.246,7.759,0.332V200.131z"/>
<g>
	<path fill="#676767" d="M21.711,29.838V18.98h1.056v-3.693h-1.981v-2.658h-2.205v2.658H15.27v-2.658h-2.205v2.658h-1.983v3.693
		h1.058v15.701C6.485,37.701,2.421,40.166,0,41.625v10.068c1.943-1.193,5.374-3.281,10.198-5.909v70.057h102.534V84.632
		c0-7.387,5.988-13.375,13.375-13.375c7.385,0,13.375,5.988,13.375,13.375v31.209h13.371V9.045c3.052-0.084,6.135-0.128,9.26-0.128
		V0C95.564,0,48.117,17.176,21.711,29.838z M31.332,102.463h-7.759v-7.139h7.759V102.463z M31.332,94.002h-7.759v-6.479h7.759
		V94.002z M31.332,86.201h-7.759v-6.479h7.759V86.201z M31.332,78.399h-7.759v-6.481h7.759V78.399z M31.332,70.598h-7.759v-6.481
		h7.759V70.598z M31.332,62.797h-7.759v-6.481h7.759V62.797z M31.332,54.996h-7.759v-6.481h7.759V54.996z M31.332,47.192h-7.759
		v-6.479h7.759V47.192z M31.332,39.393h-7.759v-0.392c2.423-1.142,5.013-2.319,7.759-3.517V39.393z M41.405,102.463h-7.762v-7.139
		h7.762V102.463z M41.405,94.002h-7.762v-6.479h7.762V94.002z M41.405,86.201h-7.762v-6.479h7.762V86.201z M41.405,78.399h-7.762
		v-6.481h7.762V78.399z M41.405,70.598h-7.762v-6.481h7.762V70.598z M41.405,62.797h-7.762v-6.481h7.762V62.797z M41.405,54.996
		h-7.762v-6.481h7.762V54.996z M41.405,47.192h-7.762v-6.479h7.762V47.192z M41.405,39.393h-7.762V34.49
		c1.23-0.524,2.493-1.052,3.783-1.58h3.979V39.393z M41.405,31.592h-0.7c0.235-0.092,0.464-0.187,0.7-0.279V31.592z M73.026,102.463
		h-7.759v-7.139h7.759V102.463z M73.026,94.002h-7.759v-6.479h7.759V94.002z M73.026,86.201h-7.759v-6.479h7.759V86.201z
		 M73.026,78.399h-7.759v-7.139h7.759V78.399z M73.026,47.855h-7.762v-7.143h7.762V47.855z M73.026,39.393h-7.762V32.91h7.762
		V39.393z M73.026,31.592h-7.762v-6.483h7.762V31.592z M73.026,23.791h-7.762v-0.744c2.524-0.764,5.112-1.51,7.762-2.238V23.791z
		 M83.096,102.463h-7.759v-7.139h7.759V102.463z M83.096,94.002h-7.759v-6.479h7.759V94.002z M83.096,86.201h-7.759v-6.479h7.759
		V86.201z M83.096,78.399h-7.759v-7.139h7.759V78.399z M83.096,47.855h-7.759v-7.143h7.759V47.855z M83.096,39.393h-7.759V32.91
		h7.759V39.393z M83.096,31.592h-7.759v-6.483h7.759V31.592z M83.096,23.791h-7.759V20.18c2.531-0.676,5.114-1.336,7.759-1.972
		V23.791z M105.676,47.855h-7.762v-7.143h7.762V47.855z M105.676,39.393h-7.762V32.91h7.762V39.393z M105.676,31.592h-7.762v-6.483
		h7.762V31.592z M105.676,23.791h-7.762v-6.483h7.762V23.791z M105.676,15.99h-7.762v-0.99c2.544-0.491,5.132-0.955,7.762-1.397
		V15.99z M115.746,47.855h-7.762v-7.143h7.762V47.855z M115.746,39.393h-7.762V32.91h7.762V39.393z M115.746,31.592h-7.762v-6.483
		h7.762V31.592z M115.746,23.791h-7.762v-6.483h7.762V23.791z M115.746,15.99h-7.762v-2.768c2.551-0.409,5.136-0.799,7.762-1.157
		V15.99z M138.325,47.855h-7.759v-7.143h7.759V47.855z M138.325,39.393h-7.759V32.91h7.759V39.393z M138.325,31.592h-7.759v-6.483
		h7.759V31.592z M138.325,23.791h-7.759v-6.483h7.759V23.791z M138.325,15.99h-7.759v-5.623c2.553-0.235,5.143-0.44,7.759-0.621
		V15.99z M148.397,47.855h-7.759v-7.143h7.759V47.855z M148.397,39.393h-7.759V32.91h7.759V39.393z M148.397,31.592h-7.759v-6.483
		h7.759V31.592z M148.397,23.791h-7.759v-6.483h7.759V23.791z M148.397,15.99h-7.759V9.595c2.557-0.161,5.141-0.299,7.759-0.403
		V15.99z"/>
</g>
<path fill="#BAD662" d="M81.82,140.608c1.368,1.94,4.311,3.754,6.778,3.541c0.496-0.036,0.982-0.167,1.429-0.38
	c6.97-3.49,13.88-8.683,20.04-14.088c1.601,0.461,3.84,0.77,6.93,0.512c4.843-0.406,11.727-2.179,21.387-6.854
	c42.74-20.704,19.61-58.859,45.744-87.106c-26.489,4.959-76.331,20.065-82.136,55.693c-3.242,19.848,0.456,29.564,2.887,33.556
	c-6.859,5.871-13.794,10.309-18.632,10.719l-0.658,0.025c-0.375,0-0.725,0.016-1.044,0.051
	C80.675,136.595,80.452,138.667,81.82,140.608z"/>
</svg>
