<?xml version="1.0" encoding="utf-8"?>
<!-- Generator: Adobe Illustrator 17.0.0, SVG Export Plug-In . SVG Version: 6.00 Build 0)  -->
<!DOCTYPE svg PUBLIC "-//W3C//DTD SVG 1.1//EN" "http://www.w3.org/Graphics/SVG/1.1/DTD/svg11.dtd">
<svg version="1.1" id="Layer_1" xmlns="http://www.w3.org/2000/svg" xmlns:xlink="http://www.w3.org/1999/xlink" x="0px" y="0px"
	 width="184px" height="184px" viewBox="0 0 184 184" enable-background="new 0 0 184 184" xml:space="preserve">
<linearGradient id="Possibly_x2C__Yes_1_" gradientUnits="userSpaceOnUse" x1="81.0567" y1="233.3945" x2="81.0567" y2="137.3042">
	<stop  offset="0" style="stop-color:#FFFFFF"/>
	<stop  offset="0.5345" style="stop-color:#FDFDFD"/>
	<stop  offset="0.7271" style="stop-color:#F6F6F7"/>
	<stop  offset="0.8639" style="stop-color:#EBEBEB"/>
	<stop  offset="0.9742" style="stop-color:#DADADB"/>
	<stop  offset="1" style="stop-color:#D5D5D6"/>
</linearGradient>
<path id="Possibly_x2C__Yes" fill="url(#Possibly_x2C__Yes_1_)" d="M21.711,208.644v9.007h1.056v3.063h-1.981v2.205h-2.205v-2.205
	H15.27v2.205h-2.205v-2.205h-1.983v-3.063h1.058v-13.025c-5.656-2.504-9.72-4.549-12.141-5.759v-8.351
	c1.943,0.99,5.374,2.722,10.198,4.901v-58.112h102.534v25.888c0,6.129,5.988,11.096,13.375,11.096
	c7.385,0,13.375-4.967,13.375-11.096v-25.888h13.371v88.588c3.052,0.07,6.135,0.106,9.26,0.106v7.396
	C95.564,233.395,48.117,219.148,21.711,208.644z M31.332,148.4h-7.759v5.924h7.759V148.4z M31.332,155.42h-7.759v5.374h7.759V155.42
	z M31.332,161.89h-7.759v5.376h7.759V161.89z M31.332,168.362h-7.759v5.376h7.759V168.362z M31.332,174.834h-7.759v5.374h7.759
	V174.834z M31.332,181.304h-7.759v5.376h7.759V181.304z M31.332,187.776h-7.759v5.376h7.759V187.776z M31.332,194.248h-7.759v5.376
	h7.759V194.248z M31.332,200.717h-7.759v0.326c2.423,0.948,5.013,1.923,7.759,2.918V200.717z M41.405,148.4h-7.762v5.924h7.762
	V148.4z M41.405,155.42h-7.762v5.374h7.762V155.42z M41.405,161.89h-7.762v5.376h7.762V161.89z M41.405,168.362h-7.762v5.376h7.762
	V168.362z M41.405,174.834h-7.762v5.374h7.762V174.834z M41.405,181.304h-7.762v5.376h7.762V181.304z M41.405,187.776h-7.762v5.376
	h7.762V187.776z M41.405,194.248h-7.762v5.376h7.762V194.248z M41.405,200.717h-7.762v4.067c1.23,0.436,2.493,0.874,3.783,1.312
	h3.979V200.717z M41.405,207.189h-0.7c0.235,0.077,0.464,0.154,0.7,0.231V207.189z M73.026,148.4h-7.759v5.924h7.759V148.4z
	 M73.026,155.42h-7.759v5.374h7.759V155.42z M73.026,161.89h-7.759v5.376h7.759V161.89z M73.026,168.362h-7.759v5.922h7.759V168.362
	z M73.026,193.7h-7.762v5.924h7.762V193.7z M73.026,200.717h-7.762v5.378h7.762V200.717z M73.026,207.189h-7.762v5.378h7.762
	V207.189z M73.026,213.661h-7.762v0.616c2.524,0.632,5.112,1.252,7.762,1.857V213.661z M83.096,148.4h-7.759v5.924h7.759V148.4z
	 M83.096,155.42h-7.759v5.374h7.759V155.42z M83.096,161.89h-7.759v5.376h7.759V161.89z M83.096,168.362h-7.759v5.922h7.759V168.362
	z M83.096,193.7h-7.759v5.924h7.759V193.7z M83.096,200.717h-7.759v5.378h7.759V200.717z M83.096,207.189h-7.759v5.378h7.759
	V207.189z M83.096,213.661h-7.759v2.993c2.531,0.561,5.114,1.109,7.759,1.637V213.661z M105.676,193.7h-7.762v5.924h7.762V193.7z
	 M105.676,200.717h-7.762v5.378h7.762V200.717z M105.676,207.189h-7.762v5.378h7.762V207.189z M105.676,213.661h-7.762v5.376h7.762
	V213.661z M105.676,220.131h-7.762v0.821c2.544,0.407,5.132,0.792,7.762,1.16V220.131z M115.746,193.7h-7.762v5.924h7.762V193.7z
	 M115.746,200.717h-7.762v5.378h7.762V200.717z M115.746,207.189h-7.762v5.378h7.762V207.189z M115.746,213.661h-7.762v5.376h7.762
	V213.661z M115.746,220.131h-7.762v2.295c2.551,0.341,5.136,0.662,7.762,0.962V220.131z M138.325,193.7h-7.759v5.924h7.759V193.7z
	 M138.325,200.717h-7.759v5.378h7.759V200.717z M138.325,207.189h-7.759v5.378h7.759V207.189z M138.325,213.661h-7.759v5.376h7.759
	V213.661z M138.325,220.131h-7.759v4.665c2.553,0.194,5.143,0.363,7.759,0.513V220.131z M148.397,193.7h-7.759v5.924h7.759V193.7z
	 M148.397,200.717h-7.759v5.378h7.759V200.717z M148.397,207.189h-7.759v5.378h7.759V207.189z M148.397,213.661h-7.759v5.376h7.759
	V213.661z M148.397,220.131h-7.759v5.306c2.557,0.132,5.141,0.246,7.759,0.332V220.131z"/>
<g>
	<path fill="#676767" d="M21.711,49.838V38.98h1.056v-3.693h-1.981v-2.658h-2.205v2.658H15.27v-2.658h-2.205v2.658h-1.983v3.693
		h1.058v15.701C6.485,57.701,2.421,60.166,0,61.625v10.068c1.943-1.193,5.374-3.281,10.198-5.909v70.057h102.534v-31.209
		c0-7.387,5.988-13.375,13.375-13.375c7.385,0,13.375,5.988,13.375,13.375v31.209h13.371V29.045c3.052-0.084,6.135-0.128,9.26-0.128
		V20C95.564,20,48.117,37.176,21.711,49.838z M31.332,122.463h-7.759v-7.139h7.759V122.463z M31.332,114.002h-7.759v-6.479h7.759
		V114.002z M31.332,106.201h-7.759v-6.479h7.759V106.201z M31.332,98.399h-7.759v-6.481h7.759V98.399z M31.332,90.598h-7.759v-6.481
		h7.759V90.598z M31.332,82.797h-7.759v-6.481h7.759V82.797z M31.332,74.996h-7.759v-6.481h7.759V74.996z M31.332,67.192h-7.759
		v-6.479h7.759V67.192z M31.332,59.393h-7.759v-0.392c2.423-1.142,5.013-2.319,7.759-3.517V59.393z M41.405,122.463h-7.762v-7.139
		h7.762V122.463z M41.405,114.002h-7.762v-6.479h7.762V114.002z M41.405,106.201h-7.762v-6.479h7.762V106.201z M41.405,98.399
		h-7.762v-6.481h7.762V98.399z M41.405,90.598h-7.762v-6.481h7.762V90.598z M41.405,82.797h-7.762v-6.481h7.762V82.797z
		 M41.405,74.996h-7.762v-6.481h7.762V74.996z M41.405,67.192h-7.762v-6.479h7.762V67.192z M41.405,59.393h-7.762V54.49
		c1.23-0.524,2.493-1.052,3.783-1.58h3.979V59.393z M41.405,51.592h-0.7c0.235-0.092,0.464-0.187,0.7-0.279V51.592z M73.026,122.463
		h-7.759v-7.139h7.759V122.463z M73.026,114.002h-7.759v-6.479h7.759V114.002z M73.026,106.201h-7.759v-6.479h7.759V106.201z
		 M73.026,98.399h-7.759v-7.139h7.759V98.399z M73.026,67.855h-7.762v-7.143h7.762V67.855z M73.026,59.393h-7.762V52.91h7.762
		V59.393z M73.026,51.592h-7.762v-6.483h7.762V51.592z M73.026,43.791h-7.762v-0.744c2.524-0.764,5.112-1.51,7.762-2.238V43.791z
		 M83.096,122.463h-7.759v-7.139h7.759V122.463z M83.096,114.002h-7.759v-6.479h7.759V114.002z M83.096,106.201h-7.759v-6.479h7.759
		V106.201z M83.096,98.399h-7.759v-7.139h7.759V98.399z M83.096,67.855h-7.759v-7.143h7.759V67.855z M83.096,59.393h-7.759V52.91
		h7.759V59.393z M83.096,51.592h-7.759v-6.483h7.759V51.592z M83.096,43.791h-7.759V40.18c2.531-0.676,5.114-1.336,7.759-1.972
		V43.791z M105.676,67.855h-7.762v-7.143h7.762V67.855z M105.676,59.393h-7.762V52.91h7.762V59.393z M105.676,51.592h-7.762v-6.483
		h7.762V51.592z M105.676,43.791h-7.762v-6.483h7.762V43.791z M105.676,35.99h-7.762v-0.99c2.544-0.491,5.132-0.955,7.762-1.397
		V35.99z M115.746,67.855h-7.762v-7.143h7.762V67.855z M115.746,59.393h-7.762V52.91h7.762V59.393z M115.746,51.592h-7.762v-6.483
		h7.762V51.592z M115.746,43.791h-7.762v-6.483h7.762V43.791z M115.746,35.99h-7.762v-2.768c2.551-0.409,5.136-0.799,7.762-1.157
		V35.99z M138.325,67.855h-7.759v-7.143h7.759V67.855z M138.325,59.393h-7.759V52.91h7.759V59.393z M138.325,51.592h-7.759v-6.483
		h7.759V51.592z M138.325,43.791h-7.759v-6.483h7.759V43.791z M138.325,35.99h-7.759v-5.623c2.553-0.235,5.143-0.44,7.759-0.621
		V35.99z M148.397,67.855h-7.759v-7.143h7.759V67.855z M148.397,59.393h-7.759V52.91h7.759V59.393z M148.397,51.592h-7.759v-6.483
		h7.759V51.592z M148.397,43.791h-7.759v-6.483h7.759V43.791z M148.397,35.99h-7.759v-6.395c2.557-0.161,5.141-0.299,7.759-0.403
		V35.99z"/>
</g>
<path fill="#BAD662" d="M81.82,160.608c1.368,1.94,4.311,3.754,6.778,3.541c0.496-0.036,0.982-0.167,1.429-0.38
	c6.97-3.49,13.88-8.683,20.04-14.088c1.601,0.461,3.84,0.77,6.93,0.512c4.843-0.406,11.727-2.179,21.387-6.854
	c42.74-20.704,19.61-58.859,45.744-87.106c-26.489,4.959-76.331,20.065-82.136,55.693c-3.242,19.848,0.456,29.564,2.887,33.556
	c-6.859,5.871-13.794,10.309-18.632,10.719l-0.658,0.025c-0.375,0-0.725,0.016-1.044,0.051
	C80.675,156.595,80.452,158.667,81.82,160.608z"/>
</svg>
