<?xml version="1.0" encoding="utf-8"?>
<!-- Generator: Adobe Illustrator 17.0.0, SVG Export Plug-In . SVG Version: 6.00 Build 0)  -->
<!DOCTYPE svg PUBLIC "-//W3C//DTD SVG 1.1//EN" "http://www.w3.org/Graphics/SVG/1.1/DTD/svg11.dtd">
<svg version="1.1" id="Layer_1" xmlns="http://www.w3.org/2000/svg" xmlns:xlink="http://www.w3.org/1999/xlink" x="0px" y="0px"
	 width="92px" height="86px" viewBox="0 0 92 86" enable-background="new 0 0 92 86" xml:space="preserve">
<g>
	<path fill="#F4F4F4" d="M10.856,28.919V23.49h0.528v-1.846h-0.99v-1.329H9.291v1.329H7.635v-1.329H6.533v1.329H5.541v1.846H6.07
		v7.851c-2.828,1.51-4.86,2.742-6.07,3.471v5.034c0.972-0.596,2.687-1.641,5.099-2.954V71.92h51.267V56.316
		c0-3.694,2.994-6.688,6.688-6.688c3.693,0,6.688,2.994,6.688,6.688V71.92h6.686V18.522c1.526-0.042,3.068-0.064,4.63-0.064V14
		C47.782,14,24.058,22.588,10.856,28.919z M15.666,65.232h-3.88v-3.569h3.88V65.232z M15.666,61.001h-3.88v-3.239h3.88V61.001z
		 M15.666,57.1h-3.88v-3.239h3.88V57.1z M15.666,53.2h-3.88v-3.24h3.88V53.2z M15.666,49.299h-3.88v-3.24h3.88V49.299z
		 M15.666,45.398h-3.88v-3.24h3.88V45.398z M15.666,41.498h-3.88v-3.24h3.88V41.498z M15.666,37.596h-3.88v-3.239h3.88V37.596z
		 M15.666,33.697h-3.88v-0.196c1.211-0.571,2.507-1.16,3.88-1.758V33.697z M20.702,65.232h-3.881v-3.569h3.881V65.232z
		 M20.702,61.001h-3.881v-3.239h3.881V61.001z M20.702,57.1h-3.881v-3.239h3.881V57.1z M20.702,53.2h-3.881v-3.24h3.881V53.2z
		 M20.702,49.299h-3.881v-3.24h3.881V49.299z M20.702,45.398h-3.881v-3.24h3.881V45.398z M20.702,41.498h-3.881v-3.24h3.881V41.498z
		 M20.702,37.596h-3.881v-3.239h3.881V37.596z M20.702,33.697h-3.881v-2.451c0.615-0.262,1.247-0.526,1.891-0.79h1.989V33.697z
		 M20.702,29.796h-0.35c0.118-0.046,0.232-0.094,0.35-0.14V29.796z M36.513,65.232h-3.88v-3.569h3.88V65.232z M36.513,61.001h-3.88
		v-3.239h3.88V61.001z M36.513,57.1h-3.88v-3.239h3.88V57.1z M36.513,53.2h-3.88V49.63h3.88V53.2z M36.513,37.927h-3.881v-3.572
		h3.881V37.927z M36.513,33.697h-3.881v-3.242h3.881V33.697z M36.513,29.796h-3.881v-3.242h3.881V29.796z M36.513,25.895h-3.881
		v-0.372c1.262-0.382,2.556-0.755,3.881-1.119V25.895z M41.548,65.232h-3.88v-3.569h3.88V65.232z M41.548,61.001h-3.88v-3.239h3.88
		V61.001z M41.548,57.1h-3.88v-3.239h3.88V57.1z M41.548,53.2h-3.88V49.63h3.88V53.2z M41.548,37.927h-3.88v-3.572h3.88V37.927z
		 M41.548,33.697h-3.88v-3.242h3.88V33.697z M41.548,29.796h-3.88v-3.242h3.88V29.796z M41.548,25.895h-3.88V24.09
		c1.265-0.338,2.557-0.668,3.88-0.986V25.895z M52.838,37.927h-3.881v-3.572h3.881V37.927z M52.838,33.697h-3.881v-3.242h3.881
		V33.697z M52.838,29.796h-3.881v-3.242h3.881V29.796z M52.838,25.895h-3.881v-3.242h3.881V25.895z M52.838,21.995h-3.881V21.5
		c1.272-0.245,2.566-0.478,3.881-0.699V21.995z M57.873,37.927h-3.881v-3.572h3.881V37.927z M57.873,33.697h-3.881v-3.242h3.881
		V33.697z M57.873,29.796h-3.881v-3.242h3.881V29.796z M57.873,25.895h-3.881v-3.242h3.881V25.895z M57.873,21.995h-3.881v-1.384
		c1.275-0.205,2.568-0.399,3.881-0.579V21.995z M69.162,37.927h-3.88v-3.572h3.88V37.927z M69.162,33.697h-3.88v-3.242h3.88V33.697z
		 M69.162,29.796h-3.88v-3.242h3.88V29.796z M69.162,25.895h-3.88v-3.242h3.88V25.895z M69.162,21.995h-3.88v-2.811
		c1.276-0.118,2.571-0.22,3.88-0.31V21.995z M74.198,37.927h-3.88v-3.572h3.88V37.927z M74.198,33.697h-3.88v-3.242h3.88V33.697z
		 M74.198,29.796h-3.88v-3.242h3.88V29.796z M74.198,25.895h-3.88v-3.242h3.88V25.895z M74.198,21.995h-3.88v-3.198
		c1.279-0.08,2.57-0.15,3.88-0.201V21.995z"/>
</g>
<path fill="#BAD662" d="M40.91,84.304c0.684,0.97,2.156,1.877,3.389,1.77c0.248-0.018,0.491-0.084,0.714-0.19
	c3.485-1.745,6.94-4.341,10.02-7.044c0.8,0.231,1.92,0.385,3.465,0.256c2.421-0.203,5.864-1.089,10.694-3.427
	c21.37-10.352,9.805-29.43,22.872-43.553c-13.245,2.48-38.166,10.033-41.068,27.846c-1.621,9.924,0.228,14.782,1.444,16.778
	c-3.429,2.936-6.897,5.154-9.316,5.36l-0.329,0.012c-0.188,0-0.362,0.008-0.522,0.025C40.338,82.298,40.226,83.334,40.91,84.304z"/>
</svg>
