<?xml version="1.0" encoding="UTF-8" standalone="no"?>
<svg width="56px" height="78px" viewBox="0 0 56 78" version="1.1" xmlns="http://www.w3.org/2000/svg" xmlns:xlink="http://www.w3.org/1999/xlink" xmlns:sketch="http://www.bohemiancoding.com/sketch/ns">
    <!-- Generator: Sketch 3.0.2 (7799) - http://www.bohemiancoding.com/sketch -->
    <title>Untitled 3</title>
    <description>Created with Sketch.</description>
    <defs></defs>
    <g id="Page-1" stroke="none" stroke-width="1" fill="none" fill-rule="evenodd" sketch:type="MSPage">
        <path d="M0,1.38305632e-16 L0,78 L28,58.8247392 L56,78 L56,1.38305632e-16 L0,1.38305632e-16 Z" id="Ribbon" fill="#C5E06C" sketch:type="MSShapeGroup"></path>
        <path d="M43.7405262,26.2644932 C43.7330512,26.2273188 43.7181011,26.1975793 43.703151,26.1678397 C43.680726,26.1009258 43.6508259,26.0340119 43.6134507,25.967098 C43.5910257,25.9299236 43.5686006,25.9001841 43.5387005,25.8630097 C43.5013253,25.8109655 43.4639502,25.7589214 43.4191,25.7068772 C43.3891999,25.6771377 43.3518248,25.6473982 43.3144497,25.6176586 C43.2845496,25.5879191 43.2546495,25.5581796 43.2172743,25.535875 L41.8792446,24.6511243 L28.7082483,15.9151406 C28.6932982,15.9002708 28.6858232,15.8928359 28.6633981,15.8854011 C28.6484481,15.8779662 28.618548,15.8630964 28.6035979,15.8556615 C28.5736978,15.8407918 28.5363227,15.8333569 28.4989476,15.8184871 C28.4466224,15.7961825 28.3942972,15.7738779 28.334497,15.7590081 C28.2821718,15.7441383 28.2298466,15.7367035 28.1700464,15.7292686 C28.1177212,15.7218337 28.057921,15.7143988 28.0055958,15.7143988 L27.9981208,15.7143988 C27.9383206,15.7143988 27.8859954,15.7218337 27.8336702,15.7292686 C27.781345,15.7367035 27.7215448,15.7441383 27.6692196,15.7590081 C27.6094194,15.7738779 27.5570942,15.7961825 27.5047691,15.8184871 C27.4673939,15.8333569 27.4374938,15.8407918 27.4001187,15.8556615 C27.3851686,15.8630964 27.3702186,15.8779662 27.3477935,15.8928359 C27.3328435,15.9002708 27.3104184,15.9077057 27.2879933,15.9225755 L13.6759704,24.9485195 L12.7789673,25.5433098 C12.7415921,25.5656145 12.719167,25.6027889 12.6817919,25.6250935 C12.6444168,25.654833 12.6145167,25.6771377 12.5771415,25.7143121 C12.5322914,25.7589214 12.4949163,25.8109655 12.4575411,25.8704446 C12.435116,25.9001841 12.4052159,25.9373585 12.3827909,25.9745329 C12.3454157,26.0340119 12.3229906,26.1083607 12.3005656,26.1752746 C12.2856155,26.2050141 12.2706655,26.2347537 12.2631904,26.2719281 C12.2332903,26.3760164 12.2183403,26.4875396 12.2183403,26.5916279 L12.2258153,45.8405315 C12.2258153,46.6063242 12.8537175,47.2308541 13.6236452,47.2308541 C13.8777961,47.2308541 14.116997,47.1639401 14.3188227,47.0449821 L27.2954683,38.3238681 C27.3104184,38.3089984 27.3328435,38.3089984 27.3552685,38.2941286 C27.3702186,38.2866937 27.3851686,38.2643891 27.4075937,38.2569542 C27.4374938,38.2420844 27.474869,38.2346496 27.5122441,38.2197798 C27.5645693,38.1974752 27.6168945,38.1751705 27.6766947,38.1603008 C27.7290198,38.145431 27.7888201,38.1379961 27.8411452,38.1305613 C27.8934704,38.1231264 27.9532706,38.1156915 28.0055958,38.1156915 L28.0130708,38.1156915 C28.0728711,38.1156915 28.1251962,38.1231264 28.1775214,38.1305613 C28.2298466,38.1379961 28.2896468,38.145431 28.341972,38.1603008 C28.4017722,38.1751705 28.4540974,38.1974752 28.5064226,38.2197798 C28.5363227,38.2346496 28.5736978,38.2420844 28.611073,38.2569542 C28.626023,38.2643891 28.6409731,38.271824 28.6559231,38.2866937 C28.6708732,38.2941286 28.6932982,38.3089984 28.7157233,38.3238681 L41.692369,47.0449821 C41.8941947,47.1639401 42.1333955,47.2308541 42.3950214,47.2308541 C43.1649492,47.2308541 43.7928514,46.6063242 43.7928514,45.8405315 L43.8003264,26.5916279 C43.7779013,26.4726698 43.7704263,26.3685815 43.7405262,26.2644932 L43.7405262,26.2644932 Z M14.7598492,43.4762398 L14.7598492,28.9187453 L25.7406629,36.1974925 L14.7598492,43.4762398 L14.7598492,43.4762398 Z M26.7497914,33.8629403 L15.7689778,26.5693233 L18.6543379,24.6585592 L26.7497914,19.290576 L26.7497914,24.6585592 L26.7497914,33.8629403 L26.7497914,33.8629403 Z M29.2838253,24.6585592 L29.2838253,19.290576 L37.3792788,24.6585592 L40.2571639,26.5693233 L29.2838253,33.8406356 L29.2838253,24.6585592 L29.2838253,24.6585592 Z M30.3004289,36.1974925 L41.2812425,28.9187453 L41.2887176,43.4836747 L30.3004289,36.1974925 L30.3004289,36.1974925 Z" id="Icon" fill-opacity="0.49572577" fill="#000000" sketch:type="MSShapeGroup"></path>
    </g>
</svg>