<?xml version="1.0" encoding="UTF-8" standalone="no"?>
<svg width="48px" height="432px" viewBox="0 0 48 432" version="1.1" xmlns="http://www.w3.org/2000/svg" xmlns:xlink="http://www.w3.org/1999/xlink" xmlns:sketch="http://www.bohemiancoding.com/sketch/ns">
    <title>nav-icons</title>
    <description>Created with Sketch (http://www.bohemiancoding.com/sketch)</description>
    <defs></defs>
    <g id="Page 1" stroke="none" stroke-width="1" fill="none" fill-rule="evenodd">
        <g id="Solar" transform="translate(12.000000, 354.000000)">
            <path d="M0,12 L24,12 L19.9755911,0 L4.02441919,0 L0,12 Z M0,12" id="Rectangle 12" opacity="0.5" fill="#000000"></path>
            <path d="M3,6 L3,7 L21,7 L21,6 L3,6 Z M3,6" id="Rectangle 12" fill="#C0C0C0"></path>
            <path d="M12,0 L12,11 L13,11 L13,0 L12,0 Z M12,0" id="Rectangle 12 copy" fill="#C0C0C0"></path>
            <path d="M17.8533073,11 L19,10.8671927 L17.1466927,0 L16,0.132807333 L17.8533073,11 Z M17.8533073,11" id="Rectangle 12 copy 2" fill="#C0C0C0"></path>
            <path d="M7.14669273,11 L9,0.132807333 L7.85330727,0 L6,10.8671927 L7.14669273,11 Z M7.14669273,11" id="Rectangle 12 copy 3" fill="#C0C0C0"></path>
        </g>
        <g id="Thermostat" transform="translate(12.000000, 300.000000)">
            <path d="M12,24 C18.6274173,24 24,18.6274173 24,12 C24,5.37258267 18.6274173,0 12,0 C5.37258267,0 0,5.37258267 0,12 C0,18.6274173 5.37258267,24 12,24 Z M12,24" id="Oval 6" opacity="0.3" fill="#000000"></path>
            <path d="M12,20 C16.4182782,20 20,16.4182782 20,12 C20,7.58172178 16.4182782,4 12,4 C7.58172178,4 4,7.58172178 4,12 C4,16.4182782 7.58172178,20 12,20 Z M12,20" id="Oval 6 copy" opacity="0.5" fill="#000000"></path>
            <text id="72" opacity="0.797514205" fill="#FFFFFF" font-family="Helvetica" font-size="10" font-weight="normal" sketch:alignment="middle" x="6.43847656" y="16">
                <tspan>72</tspan>
            </text>
        </g>
        <g id="Window" transform="translate(12.000000, 252.000000)" stroke="#000000" stroke-opacity="0.500057445" stroke-width="2" fill="#000000" fill-opacity="0.303021599">
            <path d="M12,0 L12,16 L24,16 L24,0 L12,0 Z M12,0" id="Rectangle 10"></path>
            <path d="M0,0 L0,16 L12,16 L12,0 L0,0 Z M0,0" id="Rectangle 10 copy"></path>
        </g>
        <g id="Laundry" transform="translate(14.000000, 204.000000)" fill="#000000">
            <path d="M1,7 L1,19.9927643 C1,22.2058994 2.79171562,24 4.9947834,24 L15.0052166,24 C17.2114745,24 19,22.212833 19,19.9927643 L19,7 L1,7 Z M1,7" id="Rectangle 8" opacity="0.3"></path>
            <path d="M10,20 C12.7614239,20 15,17.7614239 15,15 C15,12.2385761 12.7614239,10 10,10 C7.23857611,10 5,12.2385761 5,15 C5,17.7614239 7.23857611,20 10,20 Z M10,20" id="Oval 5" opacity="0.5"></path>
            <path d="M1.99079514,0 C0.891309342,0 0,0.886554837 0,2.00591905 L0,4.99408095 C0,6.10191945 0.898212381,7 1.99079514,7 L18.0092049,7 C19.1086907,7 20,6.11344516 20,4.99408095 L20,2.00591905 C20,0.898080551 19.1017876,0 18.0092049,0 L1.99079514,0 Z M1.99079514,0" id="Rectangle 9" opacity="0.5"></path>
        </g>
        <g id="Counters" transform="translate(12.000000, 156.000000)" fill="#000000">
            <path d="M6.10085475,13.4563001 L6.10085475,24.1637823 L24.0800781,13.4562996 L24.0800781,4.84896496 L6.10085475,13.4563001 Z M6.10085475,13.4563001" id="Rectangle 6" opacity="0.15"></path>
            <path d="M0,8.67242222 L0,18.9583857 L6.02001953,24.1637823 L6.02001953,13.6287481 L0,8.67242222 Z M0,8.67242222" id="Rectangle 7" opacity="0.3"></path>
            <path d="M6.06391532,13.7310418 L24.0800781,4.81349573 L18.3632812,0.63671875 L0,8.61206516 L6.06391532,13.7310418 Z M6.06391532,13.7310418" id="Rectangle 6" opacity="0.5"></path>
        </g>
        <g id="Kitchen" transform="translate(12.000000, 108.000000)" fill="#000000" opacity="0.5">
            <path d="M5,10 C7.76142389,10 10,7.76142389 10,5 C10,2.23857611 7.76142389,0 5,0 C2.23857611,0 0,2.23857611 0,5 C0,7.76142389 2.23857611,10 5,10 Z M5,10" id="Oval 1"></path>
            <path d="M19,10 C21.7614239,10 24,7.76142389 24,5 C24,2.23857611 21.7614239,0 19,0 C16.2385761,0 14,2.23857611 14,5 C14,7.76142389 16.2385761,10 19,10 Z M19,10" id="Oval 1 copy"></path>
            <path d="M19,24 C21.7614239,24 24,21.7614239 24,19 C24,16.2385761 21.7614239,14 19,14 C16.2385761,14 14,16.2385761 14,19 C14,21.7614239 16.2385761,24 19,24 Z M19,24" id="Oval 1 copy 2"></path>
            <path d="M5,24 C7.76142389,24 10,21.7614239 10,19 C10,16.2385761 7.76142389,14 5,14 C2.23857611,14 0,16.2385761 0,19 C0,21.7614239 2.23857611,24 5,24 Z M5,24" id="Oval 1 copy 3"></path>
        </g>
        <g id="Staircase" transform="translate(12.000000, 60.000000)" fill="#000000" opacity="0.502130682">
            <path d="M0,18 L0,24 L8,24 L8,18 L0,18 Z M0,18" id="Rectangle 2"></path>
            <path d="M5,12 L5,18 L13,18 L13,12 L5,12 Z M5,12" id="Rectangle 2 copy"></path>
            <path d="M11,6 L11,12 L19,12 L19,6 L11,6 Z M11,6" id="Rectangle 2 copy 2"></path>
            <path d="M16,0 L16,6 L24,6 L24,0 L16,0 Z M16,0" id="Rectangle 2 copy 3"></path>
        </g>
        <g id="Home" transform="translate(12.000000, 13.000000)" fill="#000000">
            <path d="M4,12 L4,22 L20,22 L20,12 L4,12 Z M4,12" id="Rectangle 1" opacity="0.29921875"></path>
            <path d="M0,12 L24,12 L12,0 L0,12 Z M0,12" id="Rectangle 2" opacity="0.496235795"></path>
        </g>
        <path d="M35.1837223,399.475984 C36.088337,400.38811 36.2422891,401.778488 35.6394871,402.852862 L35.7570133,402.878419 C35.7570133,402.878419 31.350703,410.059545 28.318293,413.117135 C25.1008545,416.361289 18.5053627,420.27332 18.5053627,420.27332 L18.4313356,420.0097 C17.4324884,420.398969 16.2536816,420.189248 15.4473585,419.37623 L12.8162772,416.723301 C11.7296685,415.62767 11.7261481,413.841996 12.8162772,412.742815 L15.4473585,410.089886 C16.5339672,408.994254 18.304936,408.990705 19.3950651,410.089886 L21.7946333,412.509379 C23.0189734,411.925871 24.274395,411.139677 25.3157573,410.089667 C26.5648923,408.83016 27.4570857,407.130744 28.0734594,405.573511 L25.9738531,403.456471 C24.8872444,402.360839 24.883724,400.575165 25.9738531,399.475984 L28.6049344,396.823055 C29.6915431,395.727424 31.4625119,395.723874 32.552641,396.823055 L35.1837223,399.475984 Z M35.1837223,399.475984" id="Callback" opacity="0.5" fill="#000000"></path>
    </g>
</svg>